Coordinates
version=1
nRows=13
nColumns=22
inDegrees=yes

Units are S.I. units (second, meters, Newtons, ...)
If the header above contains a line with 'inDegrees', this indicates whether rotational values are in degrees (yes) or radians (no).

endheader
time	pelvis_tilt	pelvis_list	pelvis_rotation	pelvis_tx	pelvis_ty	pelvis_tz	hip_flexion_r	hip_adduction_r	hip_rotation_r	knee_angle_r	ankle_angle_r	subtalar_angle_r	hip_flexion_l	hip_adduction_l	hip_rotation_l	knee_angle_l	ankle_angle_l	subtalar_angle_l	lumbar_extension	lumbar_bending	lumbar_rotation
      6.33000000	     -7.74782664	      0.92964376	    273.01305176	     -0.54038239	      0.95954358	      0.36473332	     15.11974392	     -1.49215192	     -3.22354520	    -63.05733070	     -2.71296756	      9.22406395	     17.28984505	      1.55364889	     -1.76007789	    -24.90103432	     10.00694013	    -11.92106160	      0.18858060	      3.04920581	     -2.42445148
      6.34000000	     -7.61379137	      0.69143626	    274.02017279	     -0.53682817	      0.96023980	      0.37225079	     15.68562522	     -2.01585548	     -3.17640666	    -62.56801728	     -1.88316687	      8.20516014	     16.25055219	      2.07318455	     -0.93985712	    -24.34070222	     10.19943913	    -12.01764139	      0.13287102	      2.96532830	     -2.66869851
      6.35000000	     -7.47629105	      0.45942516	    275.07767127	     -0.53314684	      0.96087474	      0.37963139	     16.18758511	     -2.53544423	     -3.15834856	    -61.87289190	     -0.97993454	      7.23658614	     15.20105507	      2.58068589	     -0.06126621	    -23.75482051	     10.36904378	    -12.11928462	      0.07999809	      2.88249534	     -2.92564850
      6.36000000	     -7.33515333	      0.23634224	    276.18514809	     -0.52934838	      0.96144974	      0.38691020	     16.62215080	     -3.05115699	     -3.18051966	    -60.97313039	     -0.03301499	      6.31437378	     14.14206941	      3.07271011	      0.87659337	    -23.14680289	     10.51969740	    -12.21923533	      0.04113694	      2.79761226	     -3.18240945
      6.37000000	     -7.18896235	      0.02010058	    277.33871023	     -0.52546022	      0.96195697	      0.39408190	     16.99477060	     -3.55543664	     -3.23738019	    -59.89203067	      0.93789171	      5.41533056	     13.07421735	      3.54479471	      1.86857056	    -22.52350070	     10.65927014	    -12.31409486	      0.01009349	      2.70723375	     -3.45307459
      6.38000000	     -7.04038835	     -0.18485108	    278.53407836	     -0.52150195	      0.96238919	      0.40114847	     17.31590994	     -4.04087247	     -3.32840993	    -58.64797475	      1.90874768	      4.53518491	     12.00767462	      3.99045082	      2.90942034	    -21.89387268	     10.79282083	    -12.39919133	     -0.00819474	      2.61320206	     -3.72573911
      6.39000000	     -6.89855452	     -0.38532852	    279.76923992	     -0.51750701	      0.96275436	      0.40810794	     17.58701197	     -4.48764698	     -3.44951458	    -57.26133155	      2.86717640	      3.69985966	     10.94168314	      4.39387421	      3.99469407	    -21.26671237	     10.92759803	    -12.46582054	     -0.02289998	      2.52129035	     -3.99057632
      6.40000000	     -6.76530540	     -0.57105645	    281.03959400	     -0.51349899	      0.96302808	      0.41494727	     17.83313196	     -4.87669747	     -3.56523920	    -55.76412925	      3.79568410	      2.90366517	      9.90014102	      4.75196356	      5.11125745	    -20.66103586	     11.07168199	    -12.51582662	     -0.02245712	      2.43243193	     -4.26901088
      6.41000000	     -6.65173058	     -0.73648655	    282.35462069	     -0.50949205	      0.96321879	      0.42163874	     18.07531500	     -5.19204357	     -3.66475045	    -54.18257958	      4.63509358	      2.26869867	      8.88782845	      5.05754820	      6.30306916	    -20.06586965	     11.21771972	    -12.52773257	     -0.00420851	      2.35192356	     -4.55661588
      6.42000000	     -6.56079014	     -0.90733299	    283.68977669	     -0.50552210	      0.96332898	      0.42822452	     18.28957010	     -5.41639181	     -3.73169658	    -52.53586405	      5.46973398	      1.56905169	      7.90800280	      5.29020746	      7.45850876	    -19.53029083	     11.39411999	    -12.54924391	      0.00835356	      2.28870587	     -4.81358812
      6.43000000	     -6.49591397	     -1.04221693	    285.06551639	     -0.50156566	      0.96333575	      0.43461338	     18.55092207	     -5.54838622	     -3.71411164	    -50.87091570	      6.15982612	      1.16050454	      6.99200718	      5.47359769	      8.69893742	    -19.02436567	     11.57390360	    -12.52907407	      0.05252357	      2.23660838	     -5.09164520
      6.44000000	     -6.44942380	     -1.16863051	    286.46032716	     -0.49763818	      0.96326256	      0.44084975	     18.82895031	     -5.59667633	     -3.61051925	    -49.20254281	      6.77386995	      0.85907701	      6.12133314	      5.60122651	      9.93618474	    -18.56546844	     11.76541702	    -12.50611223	      0.10038401	      2.19629195	     -5.35945339
      6.45000000	     -6.41007011	     -1.24546417	    287.87663575	     -0.49374864	      0.96305356	      0.44684709	     19.18931101	     -5.58610066	     -3.38289400	    -47.57561280	      7.29566956	      0.75010689	      5.35366645	      5.71004611	     11.20195319	    -18.17838811	     11.94101390	    -12.47143996	      0.18211420	      2.14194261	     -5.63553021
